General
Complete name                            : Marvel.One-Shot.Item.47.(2012).BRRip.720p.x264.Eng.AAC.AMX.mp4
Format                                   : MPEG-4
Format profile                           : Base Media
Codec ID                                 : isom
File size                                : 201 MiB
Duration                                 : 11mn 20s
Overall bit rate mode                    : Variable
Overall bit rate                         : 2 482 Kbps

Video
ID                                       : 1
Format                                   : AVC
Format/Info                              : Advanced Video Codec
Format profile                           : High@L4.0
Format settings, CABAC                   : Yes
Format settings, ReFrames                : 8 frames
Codec ID                                 : avc1
Codec ID/Info                            : Advanced Video Coding
Duration                                 : 11mn 20s
Bit rate                                 : 2 356 Kbps
Maximum bit rate                         : 17.8 Mbps
Width                                    : 1 280 pixels
Height                                   : 528 pixels
Display aspect ratio                     : 2.35:1
Frame rate mode                          : Constant
Frame rate                               : 23.976 fps
Color space                              : YUV
Chroma subsampling                       : 4:2:0
Bit depth                                : 8 bits
Scan type                                : Progressive
Bits/(Pixel*Frame)                       : 0.145
Stream size                              : 191 MiB (95%)

Audio
ID                                       : 2
Format                                   : AAC
Format/Info                              : Advanced Audio Codec
Format profile                           : LC
Codec ID                                 : 40
Duration                                 : 11mn 20s
Bit rate mode                            : Variable
Bit rate                                 : 122 Kbps
Maximum bit rate                         : 157 Kbps
Channel(s)                               : 2 channels
Channel positions                        : Front: L R
Sampling rate                            : 48.0 KHz
Compression mode                         : Lossy
Stream size                              : 9.93 MiB (5%)
Language                                 : English
